<svg width="2000px" height="500px" xmlns="http://www.w3.org/2000/svg" viewBox="-606.01875 -83.19999999999999 1712.0375 316.4" preserveAspectRatio="xMidYMid"><defs><filter id="editing-extrude-glow"><feFlood flood-color="#333333" result="flood-1"></feFlood><feMorphology operator="erode" radius="1" in="SourceAlpha" result="erode"></feMorphology><feComposite operator="in" in="flood-1" in2="erode" result="comp1"></feComposite><feConvolveMatrix order="8,8" divisor="1" in="comp1" result="convolve" kernelMatrix="0 0 0 0 0 0 0 0 0 0 0 0 0 0 0 0 0 0 0 0 0 0 0 0 0 0 0 0 0 0 0 0 1 1 1 1 1 1 1 1 0 0 0 0 0 0 0 0 0 0 0 0 0 0 0 0 0 0 0 0 0 0 0 0"></feConvolveMatrix><feOffset dx="-8" dy="0" in="convolve" result="extrude"></feOffset><feComposite operator="in" in="flood-1" in2="extrude" result="comp-extrude"></feComposite><feFlood flood-color="none" result="flood-2"></feFlood><feComposite operator="in" in="flood-2" in2="SourceAlpha" result="comp2"></feComposite><feMorphology operator="dilate" radius="1" in="comp2" result="dilate"></feMorphology><feOffset dx="-12" dy="0" in="dilate" result="offset"></feOffset><feGaussianBlur in="offset" stdDeviation="5.8" result="blur"></feGaussianBlur><feComponentTransfer in="blur" result="shadow"><feFuncA type="linear" slope="0.8" intercept="-0.2"></feFuncA></feComponentTransfer><feMerge><feMergeNode in="shadow"></feMergeNode><feMergeNode in="comp-extrude"></feMergeNode><feMergeNode in="SourceGraphic"></feMergeNode></feMerge></filter></defs>
<g filter="url(#editing-extrude-glow)"><g transform="translate(-367.0999450683594, 146.1999969482422)">
<path d="M153.80 0L107 0L101.20-19.40L53-19.40L47.20 0L2 0L52.20-137.60L103.60-137.60L153.80 0ZM76.80-99.20L62.20-50.20L92-50.20L77.60-99.20L76.80-99.20ZM262-137.60L262-137.60Q272.40-137.60 281.10-133.30L281.10-133.30L281.10-133.30Q289.80-129 294.90-121.20L294.90-121.20L294.90-121.20Q300-113.40 300-103.80L300-103.80L300-103.80Q300-78.40 277-71.80L277-71.80L277-71L277-71Q303.20-65 303.20-36.60L303.20-36.60L303.20-36.60Q303.20-25.80 297.90-17.50L297.90-17.50L297.90-17.50Q292.60-9.20 283.40-4.60L283.40-4.60L283.40-4.60Q274.20 0 263.20 0L263.20 0L170.40 0L170.40-137.60L262-137.60ZM214.60-107.40L214.60-84L245.00-84L245.00-84Q249.40-84 252.30-87.10L252.30-87.10L252.30-87.10Q255.20-90.20 255.20-94.80L255.20-94.80L255.20-96.80L255.20-96.80Q255.20-101.20 252.20-104.30L252.20-104.30L252.20-104.30Q249.20-107.40 245.00-107.40L245.00-107.40L214.60-107.40ZM214.60-55.60L214.60-32L248.20-32L248.20-32Q252.60-32 255.50-35.10L255.50-35.10L255.50-35.10Q258.40-38.20 258.40-42.80L258.40-42.80L258.40-44.80L258.40-44.80Q258.40-49.40 255.50-52.50L255.50-52.50L255.50-52.50Q252.60-55.60 248.20-55.60L248.20-55.60L214.60-55.60ZM463.00 0L418.80 0L418.80-52.20L370.20-52.20L370.20 0L326.00 0L326.00-137.60L370.20-137.60L370.20-87.40L418.80-87.40L418.80-137.60L463.00-137.60L463.00 0ZM538.80 0L494.60 0L494.60-137.60L538.80-137.60L538.80 0ZM628.20-140L628.20-140Q654.60-140 671.60-129.30L671.60-129.30L671.60-129.30Q688.60-118.60 689.00-97.60L689.00-97.60L689.00-95.20L647.60-95.20L647.60-96L647.60-96Q647.60-102 643.20-106L643.20-106L643.20-106Q638.80-110 629.80-110L629.80-110L629.80-110Q621.00-110 616.30-107.40L616.30-107.40L616.30-107.40Q611.60-104.80 611.60-101L611.60-101L611.60-101Q611.60-95.60 618.00-93L618.00-93L618.00-93Q624.40-90.40 638.60-87.60L638.60-87.60L638.60-87.60Q655.20-84.20 665.90-80.50L665.90-80.50L665.90-80.50Q676.60-76.80 684.60-68.40L684.60-68.40L684.60-68.40Q692.60-60 692.80-45.60L692.80-45.60L692.80-45.60Q692.80-21.20 676.30-9.40L676.30-9.40L676.30-9.40Q659.80 2.40 632.20 2.40L632.20 2.40L632.20 2.40Q600.00 2.40 582.10-8.40L582.10-8.40L582.10-8.40Q564.20-19.20 564.20-46.60L564.20-46.60L606.00-46.60L606.00-46.60Q606.00-36.20 611.40-32.70L611.40-32.70L611.40-32.70Q616.80-29.20 628.20-29.20L628.20-29.20L628.20-29.20Q636.60-29.20 642.10-31L642.10-31L642.10-31Q647.60-32.80 647.60-38.40L647.60-38.40L647.60-38.40Q647.60-43.40 641.50-45.90L641.50-45.90L641.50-45.90Q635.40-48.40 621.60-51.20L621.60-51.20L621.60-51.20Q604.80-54.80 593.80-58.70L593.80-58.70L593.80-58.70Q582.80-62.60 574.60-71.60L574.60-71.60L574.60-71.60Q566.40-80.60 566.40-96L566.40-96L566.40-96Q566.40-118.60 583.90-129.30L583.90-129.30L583.90-129.30Q601.40-140 628.20-140L628.20-140ZM851.80 0L807.60 0L807.60-52.20L759.00-52.20L759.00 0L714.80 0L714.80-137.60L759.00-137.60L759.00-87.40L807.60-87.40L807.60-137.60L851.80-137.60L851.80 0ZM881.40 0L881.40-137.60L1000.40-137.60L1000.40-104.60L925.60-104.60L925.60-85.60L989.60-85.60L989.60-54L925.60-54L925.60-33L1001.80-33L1001.80 0L881.40 0ZM1070-78.80L1119-137.60L1173.80-137.60L1124.40-81L1174.80 0L1122.60 0L1094-50.40L1070-30.80L1070 0L1025.80 0L1025.80-137.60L1070-137.60L1070-78.80ZM1232.20 0L1189.80 0L1189.80-39.80L1232.20-39.80L1232.20 0Z" fill="#fef5e4"></path>
</g></g>
<style>text {
  font-size: 100px;
  font-family: Arial Black;
  dominant-baseline: central;
  text-anchor: middle;
}</style>
</svg>